# xmcd
# 
# Track frame offsets:
#     183
#     17255
#     40033
#     57433
#     78813
#     93380
#     113428
#     132395
#     153463
# 
# Disc length: 2430
# 
# Revision: 13
# Processed by: cddbd v1.5.2PL0 Copyright (c) Steve Scherf et al.
# Submitted via: fre:ac v1.0.17
# 
DISCID=5e097c09
DTITLE=Depeche Mode - Some Great Reward
DYEAR=1984
DGENRE=Electronic - Industrial, Synth-Pop 
TTITLE0=Something To Do
TTITLE1=Lie To Me
TTITLE2=People Are People
TTITLE3=It Doesn't Matter
TTITLE4=Stories Of Old
TTITLE5=Somebody
TTITLE6=Master And Servant
TTITLE7=If You Want
TTITLE8=Blasphemous Rumours
EXTD=
EXTT0=
EXTT1=
EXTT2=
EXTT3=
EXTT4=
EXTT5=
EXTT6=
EXTT7=
EXTT8=
PLAYORDER=
